<svg width="286" height="258" xmlns="http://www.w3.org/2000/svg">
 <desc>Created by Logonomy.ir</desc>

 <g>
  <title>Layer 1</title>
  <g id="62761221-bbe5-4db8-ad50-0f7b9d2dced5" transform="matrix(2.1 0 0 2.1 736.5 364.45)">
   <g id="svg_1">
    <g id="Layer_1" transform="matrix(1 0 0 1 -2.69 -17.71)">
     <path fill="#5a2493" id="svg_2" stroke=" none" stroke-linecap="round" d="m-288.12429,-155.83762l16.2,20.7l-7.1,0.7l1.4,13.3c13.2,1.4 24.5,10.5 28.7,23c-5.5,-7.7 -14.9,-12.3 -25,-11.2c-15,1.6 -25.9,15 -24.3,30c1.5,14.3 13.8,24.9 28,24.5c-2.4,0.8 -4.9,1.4 -7.5,1.6c-18.6,1.9 -35.5,-11.8 -37.4,-30.5c-1.7,-16.3 8.5,-31.2 23.5,-36l-1.4,-13.2l-7.1,0.7l12,-23.6l0,0z"/>
    </g>
    <g id="Layer_1" transform="matrix(1 0 0 1 -23.57 20.7)">
     <path fill="#5a2493" id="svg_3" stroke=" none" stroke-linecap="round" d="m-327.1443,-71.44762l9.8,-24.4l4.2,5.8l10.8,-7.8c-5.4,-12.1 -3.2,-26.4 5.6,-36.4c-3.9,8.6 -3.2,19.1 2.8,27.2c8.8,12.2 26,14.9 38.1,6.1c11.6,-8.4 14.7,-24.4 7.2,-36.5c1.9,1.6 3.6,3.5 5.1,5.6c11,15.2 7.6,36.6 -7.6,47.7c-13.3,9.6 -31.2,8.3 -42.9,-2.3l-10.8,7.8l4.2,5.8l-26.5,1.4l0,0z"/>
    </g>
    <g id="Layer_1" transform="matrix(1 0 0 1 24.7 15.92)">
     <path fill="#5a2493" id="svg_4" stroke=" none" stroke-linecap="round" d="m-239.11429,-76.16762l-14.4,-22.3l-2.9,6.5l-12.2,-5.4c3.3,-15.4 -4.5,-31.6 -19.5,-38.3c-10.2,-4.5 -21.4,-3.6 -30.5,1.4c-3.2,3.5 -5.5,7.8 -6.5,12.5c7.3,-4.2 16.5,-5 24.8,-1.3c13.7,6.1 19.9,22.3 13.8,36.1c-4.1,9.2 -12.8,15.1 -22.2,16c13,2.6 26.5,-2.7 34.3,-13.4l12.2,5.4l-2.9,6.5l26,-3.7z"/>
    </g>
   </g>
  </g>
 </g>
</svg>