<svg xmlns:dc="http://purl.org/dc/elements/1.1/" xmlns:cc="http://creativecommons.org/ns#" xmlns:rdf="http://www.w3.org/1999/02/22-rdf-syntax-ns#" xmlns:svg="http://www.w3.org/2000/svg" xmlns="http://www.w3.org/2000/svg" xml:space="preserve" height="258" width="286" version="1.1"><rect id="backgroundrect" width="100%" height="100%" x="0" y="0" fill="none" stroke="none"/><metadata id="metadata24"><rdf:RDF><cc:Work rdf:about=""><dc:format>image/svg+xml</dc:format><dc:type rdf:resource="http://purl.org/dc/dcmitype/StillImage"/></cc:Work></rdf:RDF></metadata>
<desc id="desc2">Created by Logonomy.ir</desc>
<defs id="defs4">
</defs>



<g class="currentLayer" style=""><title>Layer 1</title><g id="62761221-bbe5-4db8-ad50-0f7b9d2dced5" class="">
<g id="g17" style="vector-effect:non-scaling-stroke" stroke-width="0">
		<g id="Layer_1" stroke-width="0">
<path id="path6" d="m125.79000494956972,-9.298327086071367e-8 l34.02,43.47 l-14.91,1.4700000000000002 l2.94,27.930000000000003 c27.72,2.94 51.45,22.05 60.27,48.300000000000004 c-11.55,-16.17 -31.290000000000003,-25.830000000000002 -52.5,-23.52 c-31.5,3.3600000000000003 -54.39,31.5 -51.03,63 c3.1500000000000004,30.03 28.980000000000004,52.29 58.800000000000004,51.45 c-5.04,1.6800000000000006 -10.290000000000001,2.94 -15.75,3.3600000000000003 C108.5700049495697,219.44999990701677 73.08000494956968,190.67999990701674 69.09000494956967,151.40999990701675 C65.52000494956974,117.17999990701674 86.9400049495697,85.88999990701677 118.4400049495697,75.80999990701673 l-2.94,-27.72 l-14.91,1.4700000000000002 z" style="opacity:1;fill:#662c9c;fill-rule:evenodd;stroke:none;stroke-width:1;stroke-linecap:butt;stroke-linejoin:miter;stroke-miterlimit:4;stroke-dasharray:none;stroke-dashoffset:0" stroke-width="0"/>
</g>
		<g id="g11" stroke-width="0">
<path id="path9" d="m-5.7220404414692894e-8,257.88000791788096 l20.580000000000002,-51.24 l8.82,12.18 l22.680000000000003,-16.38 C40.739999942779605,177.030007917881 45.359999942779496,147.00000791788102 63.839999942779514,126.00000791788102 c-8.19,18.06 -6.720000000000001,40.11000000000001 5.88,57.12 c18.480000000000004,25.62 54.6,31.290000000000003 80.01,12.81 c24.36,-17.64 30.87,-51.24 15.120000000000001,-76.65 c3.9899999999999998,3.3600000000000003 7.5600000000000005,7.3500000000000005 10.709999999999999,11.76 c23.1,31.919999999999998 15.959999999999999,76.86 -15.959999999999999,100.17000000000002 c-27.930000000000003,20.16 -65.52,17.430000000000003 -90.09,-4.83 l-22.680000000000003,16.38 l8.82,12.18 z" style="opacity:1;fill:#662c9c;fill-rule:evenodd;stroke:none;stroke-width:1;stroke-linecap:butt;stroke-linejoin:miter;stroke-miterlimit:4;stroke-dasharray:none;stroke-dashoffset:0" stroke-width="0"/>
</g>
		<g id="g15" stroke-width="0">
<path id="path13" d="M286.23000795364374,237.9300039124489 L255.99000795364384,191.10000391244887 L249.9000079536438,204.75000391244885 L224.2800079536438,193.41000391244887 C231.21000795364375,161.0700039124489 214.83000795364376,127.05000391244891 183.33000795364376,112.98000391244886 C161.9100079536438,103.53000391244888 138.39000795364382,105.42000391244886 119.2800079536438,115.92000391244886 c-6.720000000000001,7.3500000000000005 -11.55,16.38 -13.65,26.25 c15.33,-8.82 34.65,-10.5 52.080000000000005,-2.7300000000000004 c28.77,12.81 41.79,46.830000000000005 28.980000000000004,75.81 c-8.61,19.32 -26.880000000000003,31.71 -46.62,33.6 c27.3,5.460000000000001 55.650000000000006,-5.670000000000001 72.03,-28.14 l25.62,11.340000000000002 l-6.09,13.65 z" style="opacity:1;fill:#662c9c;fill-rule:evenodd;stroke:none;stroke-width:1;stroke-linecap:butt;stroke-linejoin:miter;stroke-miterlimit:4;stroke-dasharray:none;stroke-dashoffset:0" stroke-width="0"/>
</g>
</g>
</g></g></svg>